<?xml version="1.0" encoding="UTF-8"?> <svg xmlns="http://www.w3.org/2000/svg" width="79" height="41" viewBox="0 0 79 41" fill="none"><path d="M67.442 25.0052C65.3875 25.0052 63.6558 23.2953 63.6558 21.1823C63.6558 19.0692 65.3859 17.361 67.442 17.361C69.4981 17.361 71.2281 19.0709 71.2281 21.1823C71.2281 23.2936 69.5696 25.0052 67.442 25.0052ZM69.3567 9.73366C67.2856 9.73366 65.7119 10.6961 64.4676 12.1188C64.3013 12.3271 64.1349 12.2028 64.1349 11.8685V10.1939C64.1349 9.98561 64.0118 9.85963 63.8039 9.85963H56.4711C56.2648 9.85963 56.1401 9.98561 56.1401 10.1939V40.2313C56.1401 40.4396 56.2648 40.5656 56.4711 40.5656H63.7639C64.0118 40.5656 64.1366 40.4396 64.1366 40.2313V29.856C64.1366 29.5638 64.3445 29.4798 64.5508 29.7301C65.835 31.1108 67.3272 32.0312 69.3567 32.0312C75.4468 32.0312 78.5958 26.4245 78.5958 20.8614C78.5958 15.2984 75.4468 9.73366 69.3567 9.73366Z" fill="#006BB2"></path><path d="M45.3804 3.82124C45.3804 1.7099 47.1105 0 49.1666 0C51.2227 0 52.9528 1.7099 52.9528 3.82124C52.9528 5.93258 51.2942 7.64415 49.1666 7.64415C47.039 7.64415 45.3804 5.93426 45.3804 3.82124Z" fill="#006BB2"></path><path d="M12.8604 11.6653C11.0788 11.6653 10.5398 11.7073 9.21565 12.4598C8.84303 12.6277 8.80144 12.7117 8.84303 12.3355L9.09089 10.0343C9.13248 9.74205 9.29883 9.61608 9.54669 9.61608H18.538C18.7858 9.61608 18.9106 9.44811 18.9522 9.19784L19.9886 2.54637C20.0302 2.29442 19.8222 2.12813 19.5744 2.12813H2.9991C2.75124 2.12813 2.58489 2.25411 2.5433 2.54637L0.428972 19.0944C0.405683 19.2708 0.518802 19.4371 0.690144 19.4808L6.68877 20.9773C6.7969 18.9617 8.48038 17.3627 10.4683 17.3627C12.5959 17.3627 14.2544 19.0726 14.2544 21.1839C14.2544 23.2953 12.5959 25.0068 10.4683 25.0068C8.91955 25.0068 7.5538 24.0343 6.97656 22.6503L0.389048 23.5069C0.182772 23.5489 -0.066755 23.6749 0.0164207 23.9671C1.67328 29.8661 6.10654 32.0833 10.8293 32.0833C17.7478 32.0833 21.519 26.8528 21.519 21.4157C21.519 15.9786 17.5831 11.6686 12.8604 11.6686" fill="#006BB2"></path><path d="M34.8571 11.6653C33.0754 11.6653 32.5365 11.7073 31.2123 12.4598C30.8397 12.6277 30.7981 12.7117 30.8397 12.3355L31.0875 10.0343C31.1291 9.74205 31.2955 9.61608 31.5433 9.61608H40.5346C40.7825 9.61608 40.9073 9.44811 40.9488 9.19784L41.9852 2.54637C42.0268 2.29442 41.8189 2.12813 41.571 2.12813H24.9974C24.7495 2.12813 24.5832 2.25411 24.5416 2.54637L22.4273 19.0944C22.404 19.2708 22.5171 19.4371 22.6885 19.4808L28.6871 20.9773C28.7952 18.9617 30.4787 17.3627 32.4666 17.3627C34.5942 17.3627 36.2527 19.0726 36.2527 21.1839C36.2527 23.2953 34.5942 25.0068 32.4666 25.0068C30.9179 25.0068 29.5521 24.0343 28.9749 22.6503L22.3874 23.5069C22.1811 23.5489 21.9316 23.6749 22.0147 23.9671C23.6716 29.8661 28.1049 32.0833 32.8276 32.0833C39.7461 32.0833 43.5173 26.8528 43.5173 21.4157C43.5173 15.9786 39.5814 11.6686 34.8587 11.6686" fill="#006BB2"></path><path d="M52.6982 9.93522C51.9913 11.0035 50.7869 11.7073 49.3895 11.7073C47.9922 11.7073 46.821 11.0052 46.0974 9.93522H45.4037C45.3954 15.4025 45.3921 31.571 45.3921 31.571C45.3921 31.7793 45.5168 31.9052 45.7248 31.9052H53.0576C53.2638 31.9052 53.3886 31.7793 53.3886 31.571C53.3886 31.571 53.3836 15.4126 53.3736 9.93522H52.6982Z" fill="#006BB2"></path></svg> 